<?xml version="1.0" encoding="UTF-8" standalone="no"?>
<svg xmlns="http://www.w3.org/2000/svg" version="1.1" viewBox="0 0 510.01 119.47" height="119.47" width="510.01">
 <defs/>
 <g transform="translate(-600.07,-644.9)">
  <g transform="matrix(1.0244,0,0,-1.0244,571.88,1195.8)">
   <path d="m 520.5,426.04 -488.1,0 0,106.86 488.1,0 0,-106.86 z" style="fill:#286fb7"/>
   <g transform="translate(594.98,68.525)">
    <path d="m -384.36,406.4 0,0 0.1,0 0.54,0 0,0 c 2.19,-1.5 3.03,-2.4 4.62,-3.93 l 0,-0.1 -0.1,0 c 0,0 -0.12,0.1 -0.3,0.27 -0.21,0.18 -0.54,0.42 -0.96,0.78 -0.84,0.66 -2.16,1.62 -3.9,2.85 l 0,0.1 z m 2.97,0.18 -4.38,0 0,-1.74 c 0.42,-0.15 0.78,-0.33 1.14,-0.48 2.01,-0.78 2.97,-1.38 3,-1.41 0.12,-0.1 4.59,-2.43 8.31,-5.82 3.72,-3.42 4.35,-3.12 8.91,-8.19 l 0.57,-0.66 c -2.28,3.33 -5.58,6.84 -10.86,11.61 -0.57,0.51 -1.17,1.05 -1.74,1.62 -1.86,1.74 -3.66,3.63 -4.95,5.07" style="fill:#d9e0f1"/>
   </g>
   <g transform="translate(595.45,68.19)" style="fill:#286fb7">
    <path d="m -370.69,396.7 c -3.23,3.06 -7.58,7.26 -10.4,10.5 l -0.85,0 c 2.02,-2.31 4.47,-4.86 6.78,-6.93 5.67,-5.1 9.07,-8.79 11.37,-12.33 l -1.13,1.29 c -4.57,5.07 -5.16,4.77 -8.91,8.19 -3.75,3.45 -8.32,5.82 -8.32,5.82 0,0 -1.35,0.87 -4.29,1.89 l 0,-1.35 c 3.94,-1.41 5.67,-2.4 5.67,-2.4 0,0 5.77,-3.24 10,-7.32 3.62,-3.51 4.44,-4.41 5.27,-5.34 0,0 1.75,-1.23 2.62,-1.59 0,0 -1.48,3.6 -7.81,9.57"/>
    <path d="m -370.69,396.7 0,0 c -3.24,3.09 -7.59,7.26 -10.37,10.5 l -0.1,0 -0.85,0 0,0 0,-0.1 c 1.97,-2.28 4.47,-4.83 6.77,-6.93 5.67,-5.1 9.06,-8.76 11.34,-12.3 l 0.1,0 0,0 -1.15,1.29 c -4.55,5.07 -5.16,4.77 -8.91,8.19 -3.75,3.45 -8.28,5.85 -8.28,5.85 l -0.1,-0.1 0.1,0.1 c 0,0 -1.38,0.84 -4.35,1.89 l 0,0 0,-0.1 0,-1.35 0,0 c 1.98,-0.72 3.39,-1.32 4.32,-1.74 0.45,-0.24 0.82,-0.39 1.02,-0.51 0.24,-0.12 0.34,-0.18 0.34,-0.18 0,0 0.35,-0.21 0.96,-0.57 1.82,-1.11 5.85,-3.69 8.99,-6.72 3.66,-3.51 4.47,-4.41 5.31,-5.34 l 0,0 c 0,0 1.74,-1.23 2.61,-1.56 l 0.1,0 0,0.1 c 0,0 -1.47,3.6 -7.8,9.57 l 0,0 0,0 c 3.14,-3 5.09,-5.37 6.23,-7.02 0.6,-0.81 0.99,-1.47 1.21,-1.89 0.11,-0.21 0.21,-0.36 0.26,-0.48 0,-0.12 0.1,-0.15 0.1,-0.15 l 0.1,0 0,0.1 c -0.39,0.18 -1.06,0.57 -1.6,0.9 -0.53,0.36 -0.98,0.66 -0.98,0.66 l 0,0 0,0 c -0.82,0.93 -1.66,1.83 -5.29,5.34 -4.23,4.08 -9.99,7.32 -9.99,7.32 0,0 -1.76,1.02 -5.7,2.43 l 0,-0.1 0.1,0 0,1.35 -0.1,0 0,0 c 1.48,-0.54 2.56,-1.02 3.28,-1.35 0.35,-0.18 0.6,-0.3 0.78,-0.39 0.17,-0.12 0.26,-0.15 0.26,-0.15 0,0 0.28,-0.15 0.75,-0.45 1.48,-0.81 4.71,-2.79 7.53,-5.37 3.75,-3.45 4.35,-3.15 8.91,-8.19 l 0,0 0,0 1.14,-1.29 0.1,0 0,0.1 c -2.32,3.54 -5.7,7.23 -11.34,12.33 -2.32,2.07 -4.81,4.65 -6.78,6.93 l -0.1,0 0,-0.1 0.85,0 0,0.1 0,-0.1 c 2.79,-3.21 7.15,-7.41 10.42,-10.47 l 0,0 z"/>
   </g>
   <g transform="translate(595.15,68.394)">
    <path d="m -379.3,402.6 c -1.62,1.53 -2.43,2.4 -4.65,3.93 l -0.54,0 c 3.54,-2.46 5.19,-3.93 5.19,-3.93" style="fill:#286fb7"/>
   </g>
   <g transform="translate(595.15,68.394)">
    <path d="m -379.3,402.6 0,0 c -1.62,1.53 -2.43,2.43 -4.65,3.96 l 0,0 -0.54,0 0,0 0,-0.1 c 1.77,-1.23 3.06,-2.19 3.93,-2.88 0.42,-0.33 0.72,-0.6 0.96,-0.78 0.18,-0.15 0.3,-0.24 0.3,-0.24 l 0.1,0 0,0.1 0,0 0,0 c 0,0 -1.65,1.5 -5.19,3.93 l 0,0 0,-0.1 0.54,0 0,0.1 0,0 c 2.19,-1.53 3.03,-2.43 4.65,-3.93 l 0,0 0,0 0,0 z" style="fill:#286fb7"/>
   </g>
   <g transform="translate(595.11,68.531)">
    <path d="m -380.58,406.57 -0.69,0 c 1.95,-2.22 4.29,-4.62 6.51,-6.6 5.67,-5.13 9.06,-8.79 11.37,-12.33 l 0,-0.1 -0.1,0 -1.14,1.32 c -4.56,5.04 -5.16,4.74 -8.91,8.16 -2.82,2.58 -6.06,4.56 -7.53,5.4 -0.48,0.27 -0.75,0.42 -0.75,0.42 0,0 -0.1,0.1 -0.27,0.15 -0.18,0.1 -0.42,0.24 -0.78,0.42 -0.69,0.33 -1.68,0.75 -3.06,1.26 l 0,-1.23 c 3.81,-1.38 5.52,-2.37 5.52,-2.37 0,0 5.76,-3.24 9.99,-7.32 3.63,-3.51 4.47,-4.41 5.28,-5.34 0.1,0 0.48,-0.33 0.99,-0.66 0.48,-0.33 1.08,-0.66 1.47,-0.87 0,0 0,0 0,0.1 -0.1,0.1 -0.15,0.27 -0.24,0.48 -0.24,0.42 -0.63,1.05 -1.2,1.89 -1.17,1.62 -3.12,4.02 -6.27,6.99 l 0,0.1 0,-0.1 c -3.18,3 -7.38,7.05 -10.2,10.26" style="fill:#1f60ad"/>
   </g>
   <g transform="translate(595.45,68.191)">
    <path d="m -370.65,396.74 0,0 0,0 z m -15.6,7.05 0,-0.12 c 1.86,-0.69 3.21,-1.26 4.08,-1.68 0.48,-0.21 0.81,-0.36 1.05,-0.48 0.21,-0.12 0.33,-0.18 0.33,-0.18 0,0 0.36,-0.21 0.96,-0.57 1.8,-1.11 5.82,-3.69 9,-6.72 3.66,-3.54 4.47,-4.41 5.31,-5.37 l 0,0 c 0,0 1.74,-1.23 2.61,-1.59 l 0.1,0 0,0.1 c 0,0 -1.47,3.6 -7.8,9.57 l 0,0 0,-0.1 c 3.15,-2.97 5.1,-5.37 6.24,-6.99 0.57,-0.84 0.96,-1.47 1.2,-1.89 0.12,-0.21 0.21,-0.39 0.24,-0.48 0,0 0,0 0,0 -0.42,0.18 -0.99,0.51 -1.5,0.84 -0.48,0.33 -0.9,0.63 -0.96,0.66 -0.84,0.93 -1.65,1.83 -5.28,5.34 -4.26,4.08 -9.99,7.32 -9.99,7.32 0,0 -1.71,0.99 -5.52,2.37 m 4.62,3.12 -0.12,0 c 1.95,-2.22 4.35,-4.68 6.57,-6.69 5.28,-4.77 8.61,-8.28 10.89,-11.61 l -0.6,0.66 0,0 c -4.56,5.07 -5.16,4.77 -8.91,8.19 -3.69,3.39 -8.19,5.76 -8.31,5.82 0,0 -0.99,0.6 -3,1.41 -0.36,0.15 -0.72,0.3 -1.14,0.45 l 0,-0.12 c 1.35,-0.51 2.37,-0.93 3.03,-1.26 0.36,-0.18 0.63,-0.33 0.81,-0.42 0.18,-0.1 0.24,-0.15 0.24,-0.15 0,0 0.3,-0.15 0.78,-0.42 1.44,-0.84 4.71,-2.82 7.53,-5.4 3.75,-3.42 4.32,-3.12 8.88,-8.16 l 1.14,-1.32 0.1,0 0,0.1 c -2.31,3.54 -5.7,7.23 -11.37,12.33 -2.19,1.98 -4.56,4.38 -6.51,6.6 m 0.84,0 -0.12,0 c 2.79,-3.21 7.02,-7.26 10.2,-10.26 l 0,0.1 0,0 c -3.15,2.97 -7.32,6.99 -10.14,10.17" style="fill:#1f60ad"/>
   </g>
   <g transform="translate(595,68.523)">
    <path d="m -383.81,406.35 -0.36,0 c 1.75,-1.2 3,-2.19 3.85,-2.82 -1,0.93 -1.86,1.71 -3.49,2.82" style="fill:#1f60ad"/>
   </g>
   <g transform="translate(595.15,68.395)">
    <path d="m -384.31,406.48 0.33,0 c 1.62,-1.14 2.49,-1.89 3.51,-2.85 -0.84,0.66 -2.13,1.62 -3.84,2.85 m 0.36,0.12 -0.54,0 0,0 0,-0.1 c 1.77,-1.23 3.06,-2.22 3.9,-2.88 0.45,-0.33 0.75,-0.6 0.96,-0.78 0.21,-0.15 0.3,-0.24 0.33,-0.27 l 0.1,0 0,0.1 0,0 0,0 0,0 0,0 c -1.62,1.53 -2.46,2.4 -4.65,3.93 l 0,0 z" style="fill:#1f60ad"/>
   </g>
   <g transform="translate(590.05,69.423)">
    <path d="m -527.26,432.45 28.71,0 0,-9.69 -3.51,0 c -1.68,0 -2.19,-0.66 -2.19,-2.31 l 0,-21.87 c 0,-1.05 0.87,-2.01 2.31,-2.01 l 8.28,0 c 1.08,0 2.43,0.75 2.43,2.28 l 0,7.86 11.46,0 0,-19.86 -47.49,0 0,9.69 3.36,0 c 1.56,0 2.37,0.51 2.37,2.1 l 0,21.81 c 0,1.41 -0.27,2.31 -2.16,2.31 l -3.57,0 0,9.69 z" style="fill:#ffffff"/>
   </g>
   <g transform="translate(591.8,69.423)">
    <path d="m -476.52,432.45 47.21,0 0,-14.64 -11.81,0 0,2.43 c 0,1.5 -0.75,2.52 -3.04,2.52 l -10.28,0 0,-8.25 11.1,0 0,-8.85 -11.1,0 0,-9.09 10.76,0 c 1.42,0 2.56,0.87 2.56,2.49 l 0,2.49 11.81,0 0,-14.7 -47.21,0 0,9.69 2.55,0 c 1.35,0 2.28,0.54 2.28,1.92 l 0,21.9 c 0,1.47 -0.24,2.4 -2.13,2.4 l -2.7,0 0,9.69 z" style="fill:#ffffff"/>
   </g>
   <g transform="translate(594.16,69.423)">
    <path d="m -408.15,432.45 48.34,0 0,-14.64 -11.83,0 0,2.49 c 0,1.32 -0.81,2.46 -2.61,2.46 l -10.7,0 0,-8.25 9.89,0 0,-8.85 -9.89,0 0,-6.57 c 0,-1.83 0.77,-2.55 3.14,-2.55 l 3.75,0 0,-9.69 -30.09,0 0,9.69 3.99,0 c 1.15,0 1.95,0.75 1.95,1.92 l 0,21.9 c 0,1.38 -0.24,2.4 -2.12,2.4 l -3.82,0 0,9.69 z" style="fill:#ffffff"/>
   </g>
   <g transform="translate(596.68,69.023)">
    <path d="m -334.95,420.86 c 0,1.71 0.54,2.28 2.19,2.28 l 3.54,0 0,9.72 -28.53,0 0,-9.72 3.63,0 c 1.92,0 2.19,-0.87 2.19,-2.28 l 0,-21.87 c 0,-1.71 -1.05,-2.07 -2.25,-2.07 l -3.57,0 0,-9.66 28.53,0 0,9.66 -3.48,0 c -1.38,0 -2.25,0.54 -2.25,2.13 l 0,21.81 z" style="fill:#ffffff"/>
   </g>
   <g transform="translate(598.28,69.423)">
    <path d="m -288.78,432.45 10.11,0 0,-16.02 -10.17,0 c 0,0 -2.91,6.99 -11.13,6.99 -6.15,0 -10.95,-4.44 -10.95,-12.66 0,-13.92 7.71,-15.09 11.04,-15.09 6.84,0 8.43,4.83 8.43,6.78 l -6.36,0 0,8.4 21.87,0 c 0,0 -0.1,-3.42 -0.1,-5.85 0,-1.17 -1.14,-18.96 -25.65,-18.96 -17.7,0 -26.97,10.11 -26.97,24.51 0,9.57 7.5,22.59 25.47,22.59 10.05,0 14.4,-4.11 14.4,-4.11 l 0,3.42 z" style="fill:#ffffff"/>
   </g>
   <g transform="translate(600.49,68.225)">
    <path d="m -224.65,397.73 c -1.95,0 -2.55,1.74 -3.72,4.56 -0.96,2.31 -12.06,31.35 -12.06,31.35 l -17.58,0 c 0,0 -11.94,-32.28 -12.48,-33.66 -0.69,-1.62 -1.68,-2.25 -3.45,-2.25 l -2.55,0 0,-9.66 21.51,0 0,9.18 -2.97,0 c -1.29,0 -1.59,0.99 -1.17,2.37 0.51,1.59 1.38,4.08 1.38,4.08 l 13.05,0 c 0,0 0.72,-2.25 1.41,-4.32 0.51,-1.56 -1.14,-2.13 -2.13,-2.13 l -2.55,0 0,-9.18 25.89,0 0,9.66 -2.58,0 z m -30.99,12.24 4.5,13.41 0.15,0 4.29,-13.41 -8.94,0 z" style="fill:#ffffff"/>
   </g>
   <g transform="translate(602.51,68.225)">
    <path d="m -165.95,397.73 c -1.77,0 -2.04,0.84 -2.94,2.01 -0.87,1.17 -6.33,9.69 -6.33,9.69 0,0 7.98,2.22 7.98,10.74 0,8.49 -7.11,11.52 -10.14,12.3 -3.03,0.78 -9.57,1.17 -11.34,1.17 l -8.79,0 -22.38,0 0,-9.69 3.06,0 c 1.95,0 2.19,-0.96 2.19,-2.28 l 0,-21.66 c 0,-0.96 -0.15,-2.28 -2.28,-2.28 l -2.97,0 0,-9.66 27.45,0 0,9.66 -2.79,0 c -1.92,0 -2.16,1.05 -2.16,2.19 l 0,7.38 6.12,0 11.25,-19.23 17.22,0 0,9.66 -3.15,0 z m -25.2,17.46 -6.24,0 0,9.39 6.78,0 c 1.98,0 5.49,-0.72 5.49,-4.8 0,-3.06 -2.25,-4.59 -6.03,-4.59" style="fill:#ffffff"/>
   </g>
   <g transform="translate(603.46,69.446)">
    <path d="m -138.37,433.12 c -19.14,0 -26.07,-12.81 -26.07,-23.07 0,-13.62 9.6,-24.03 25.89,-24.03 14.52,0 25.95,7.95 25.95,23.46 0,14.73 -10.92,23.64 -25.77,23.64 m 0.3,-37.47 c -4.2,0 -8.61,2.49 -8.61,15.18 0,7.83 3,12.69 8.13,12.69 4.86,0 8.4,-3.21 8.4,-13.56 0,-11.19 -3.69,-14.31 -7.92,-14.31" style="fill:#ffffff"/>
   </g>
   <g transform="translate(594.29,69.43)">
    <path d="m -404.38,432.65 0,-0.21 0.45,0 c -0.18,0.1 -0.33,0.15 -0.48,0.21 m -8.73,3.24 0.51,-5.64 c 0.51,-0.57 1.02,-1.11 1.59,-1.62 l -0.51,6.06 0.1,0 0,0 0.54,-6.18 c 0.51,-0.45 1.02,-0.9 1.56,-1.32 l -0.54,6.51 0.12,0 0.54,-6.63 c 0.3,-0.24 0.63,-0.45 0.93,-0.69 l 0,6.03 0.1,0 0,0.36 0.1,0 0,0 0,-0.36 1.26,0 c -2.25,0.93 -4.38,2.13 -6.3,3.45 m -1.68,1.2 0.42,-4.77 c 0.51,-0.66 1.05,-1.32 1.65,-1.95 l -0.48,5.55 0.1,0 c -0.57,0.39 -1.11,0.78 -1.65,1.17 m -1.68,1.32 0.3,-3.63 c 0.51,-0.75 1.05,-1.53 1.68,-2.31 l -0.42,4.71 c -0.54,0.42 -1.05,0.81 -1.56,1.23 m -1.65,1.41 0.15,-2.04 c 0.42,-0.78 0.93,-1.65 1.5,-2.55 0.1,-0.1 0.12,-0.18 0.18,-0.24 l -0.3,3.51 c -0.54,0.45 -1.05,0.9 -1.53,1.32 m -1.56,1.47 c 0.12,-0.33 0.33,-0.81 0.6,-1.38 0.27,-0.54 0.6,-1.2 0.99,-1.89 l -0.12,1.89 c -0.57,0.48 -1.05,0.96 -1.47,1.38 m -2.34,2.4 c 0.1,-2.49 0.51,-5.16 0.93,-7.05 0.15,-0.75 0.36,-1.56 0.57,-2.4 l 0,0 c 0,-0.12 0.1,-0.18 0.1,-0.18 -0.51,0.24 -0.87,0.51 -1.14,0.75 -0.24,0.15 -0.48,0.39 -0.78,0.66 0.1,-0.21 0.12,-0.39 0.15,-0.57 0.12,-0.27 0.24,-0.6 0.36,-0.93 0.45,-1.14 1.11,-2.64 2.01,-4.26 1.74,-3.24 4.29,-6.9 7.62,-8.55 l 0,-0.1 -0.1,-0.1 c 0,0 -0.24,0 -0.63,0 0.15,-0.1 0.24,-0.12 0.24,-0.12 -1.56,0.18 -3,0.66 -3.69,0.93 0.1,-0.1 0.15,-0.15 0.24,-0.24 0.36,-0.36 0.96,-0.9 1.89,-1.62 1.92,-1.44 5.19,-3.6 10.71,-6.48 l 0,0 0,-0.1 c 0,0 -0.18,-0.1 -0.6,-0.12 l -0.1,0 c -0.15,0 -0.36,0 -0.6,0 -0.6,0 -1.44,0.1 -2.55,0.33 0.1,0 0.12,-0.1 0.18,-0.1 0.27,-0.18 0.66,-0.42 1.17,-0.72 0.93,-0.57 2.19,-1.32 3.63,-2.1 l 0,9.63 c 0,1.38 -0.24,2.4 -2.13,2.4 l -3.81,0 0,2.97 c -5.67,3.87 -10.14,11.76 -11.64,15.78 -1.32,1.29 -2.1,2.19 -2.1,2.19" style="fill:#d9e0f1"/>
   </g>
   <g transform="translate(594.61,69.173)">
    <path d="m -395.13,425.21 0.72,-8.37 c 0.63,-0.66 1.17,-1.26 1.62,-1.86 l -0.66,7.65 -0.1,0 c -0.27,0.51 -0.63,1.11 -1.08,1.77 -0.15,0.27 -0.36,0.51 -0.54,0.78 m -13.47,0.78 0,-3 3.81,0 c 1.89,0 2.13,-1.02 2.13,-2.37 l 0,-9.66 c 0.12,-0.1 0.24,-0.12 0.36,-0.18 3.06,-1.65 6.87,-3.42 9.84,-3.93 l 0,13.89 c 0,0 -0.27,0.69 -0.84,1.71 l 0.66,-7.62 c 0,0 0,-0.1 0,-0.1 l 0,0 0,-0.69 0,0 -0.1,0 c -0.48,0.78 -3.66,5.25 -14.49,11.07 -0.48,0.27 -0.96,0.57 -1.44,0.9 m 0.12,6.72 -0.12,0 0,-6.03 c 0.21,-0.15 0.42,-0.3 0.66,-0.45 l -0.54,6.48 z m 4.26,0 -0.45,0 0.1,-0.6 0,-0.1 -0.1,0 c 0,0 0,0 -0.1,0 0,-0.12 0,-0.18 -0.1,-0.18 l 0,0 c -0.78,0.21 -1.53,0.48 -2.28,0.81 l -1.29,0 0.54,-6.54 c 0.51,-0.33 1.02,-0.63 1.56,-0.93 l -0.57,6.93 0,0 0.1,0 0.6,-7.02 c 0,0 0.1,0 0.12,-0.1 0.48,-0.24 0.93,-0.51 1.41,-0.75 l -0.63,7.2 0.1,0 0.1,0 0.63,-7.26 c 0.51,-0.3 1.05,-0.6 1.56,-0.93 l -0.75,8.7 0.12,0 0.75,-8.79 c 0.51,-0.33 1.05,-0.66 1.56,-0.99 l -0.78,8.91 0.12,0 0.75,-8.97 c 0.54,-0.36 1.05,-0.72 1.56,-1.08 l -0.75,9 0.1,0 0.78,-9.09 c 0.54,-0.39 1.05,-0.78 1.56,-1.17 l -0.78,9 0.12,0 0.78,-9.12 c 0.54,-0.45 1.11,-0.9 1.62,-1.35 l -0.78,8.76 0,0 0.1,0 0.78,-8.88 c 0.6,-0.51 1.11,-0.99 1.59,-1.47 l -0.72,8.4 c -1.89,2.52 -4.83,5.49 -8.97,7.35" style="fill:#ffffff"/>
   </g>
   <g transform="translate(594.66,69.118)">
    <path d="m -393.58,423.61 c -1.11,1.89 -3.39,5.34 -5.85,7.05 -3.57,2.52 -6.45,3.66 -6.45,3.66 l 0.78,-1.53 c 0,0 -6,2.28 -8.55,4.11 -3.84,2.79 -9.27,8.13 -9.27,8.13 -0.3,-3.9 1.38,-9.75 1.38,-9.75 -0.75,0.36 -2.01,2.01 -2.01,2.01 2.64,-11.1 9.27,-15.36 9.27,-15.36 -0.45,0 -3.9,1.2 -3.9,1.2 3.39,-4.77 12.87,-8.97 12.87,-8.97 -1.02,0 -4.23,0.69 -4.23,0.69 8.55,-6.75 17.28,-8.79 17.28,-8.79 l 0,0.75 c -6.09,0.9 -15.75,7.29 -15.75,7.29 2.91,-0.75 4.11,-0.27 4.11,-0.27 -11.1,5.73 -13.14,8.61 -13.14,8.61 1.98,-1.02 4.38,-1.02 4.38,-1.02 -6.66,3.33 -10.32,14.64 -10.32,14.64 1.2,-1.23 2.01,-1.5 2.01,-1.5 -1.71,6.51 -1.77,10.08 -1.77,10.08 0.18,-0.45 3.51,-4.23 9.66,-8.43 4.14,-2.79 8.37,-4.05 8.37,-4.05 l -0.18,1.11 c 0,0 0.93,0 5.25,-3.18 2.91,-2.13 5.1,-5.49 6.09,-7.35 l -0.1,0.87 z" style="fill:#286fb7"/>
   </g>
   <g transform="translate(594.66,69.118)">
    <path d="m -393.58,423.61 0.1,0 c -1.11,1.89 -3.42,5.34 -5.85,7.08 -3.6,2.49 -6.48,3.66 -6.48,3.66 l -0.1,0 0,-0.1 0.78,-1.53 0.1,0 0,0.1 c 0,0 -0.36,0.12 -0.96,0.36 -1.8,0.72 -5.64,2.34 -7.53,3.72 -1.95,1.41 -4.26,3.45 -6.09,5.13 -0.93,0.84 -1.71,1.59 -2.31,2.13 -0.54,0.54 -0.9,0.87 -0.9,0.87 l -0.1,0 0,0 c 0,-0.33 0,-0.69 0,-1.05 0,-3.81 1.41,-8.7 1.41,-8.7 l 0.1,0 0,0.1 c -0.36,0.15 -0.87,0.66 -1.29,1.11 -0.18,0.24 -0.36,0.45 -0.51,0.63 -0.12,0.15 -0.18,0.24 -0.18,0.24 l -0.1,0 0,-0.1 c 2.67,-11.13 9.3,-15.42 9.3,-15.42 l 0,0.1 0,0 c -0.1,0 -0.39,0.1 -0.78,0.21 -0.6,0.18 -1.38,0.42 -2.01,0.63 -0.63,0.21 -1.11,0.39 -1.11,0.39 l -0.1,0 0,-0.1 c 3.42,-4.77 12.93,-9 12.93,-9 l 0,0.1 0,0 c -0.48,0 -1.56,0.18 -2.49,0.36 -0.93,0.15 -1.74,0.33 -1.74,0.33 l -0.1,0 0,-0.1 c 8.58,-6.75 17.34,-8.79 17.34,-8.79 l 0.1,0 0,0 0,0.75 -0.1,0.1 c -3.03,0.45 -6.96,2.25 -10.11,3.96 -1.59,0.84 -3,1.68 -3.99,2.28 -0.51,0.3 -0.9,0.57 -1.17,0.75 -0.3,0.18 -0.45,0.27 -0.45,0.27 l 0,0 0,-0.1 c 1.26,-0.33 2.19,-0.42 2.85,-0.42 0.87,0 1.26,0.15 1.26,0.15 l 0,0.1 0,0.1 c -5.52,2.85 -8.82,4.98 -10.71,6.42 -0.93,0.75 -1.53,1.29 -1.89,1.62 -0.18,0.18 -0.3,0.33 -0.39,0.42 -0.1,0.1 -0.1,0.1 -0.1,0.1 l 0,0 0,0 0,0 c 2.01,-1.05 4.41,-1.05 4.41,-1.05 l 0.1,0.1 0,0.1 c -3.33,1.65 -5.91,5.31 -7.65,8.55 -0.87,1.62 -1.53,3.12 -1.98,4.23 -0.21,0.57 -0.39,1.02 -0.48,1.32 -0.12,0.33 -0.18,0.51 -0.18,0.51 l -0.1,0 0,0 c 1.2,-1.26 2.01,-1.53 2.04,-1.53 l 0,0 0,0.1 c -0.84,3.27 -1.29,5.79 -1.53,7.5 -0.12,0.84 -0.18,1.5 -0.21,1.92 0,0.45 -0.1,0.66 -0.1,0.66 l 0,0 -0.1,0 c 0.1,-0.15 0.3,-0.45 0.72,-0.93 1.32,-1.47 4.35,-4.38 8.97,-7.56 4.14,-2.79 8.37,-4.05 8.4,-4.05 l 0,0 0,0.1 -0.18,1.14 -0.1,0 0,0 0,0 c 0.1,0 1.14,-0.21 5.19,-3.18 2.88,-2.13 5.07,-5.49 6.06,-7.35 l 0.1,0 0,0.1 -0.1,0.87 0,0 -0.1,0 -0.1,0 0.1,-0.87 0.1,0 0.1,0 c -1.02,1.86 -3.21,5.22 -6.12,7.38 -4.32,3.15 -5.25,3.18 -5.28,3.18 l 0,0 0,-0.1 0.18,-1.11 0.1,0 0,0.1 c 0,0 -0.27,0.1 -0.75,0.21 -1.38,0.51 -4.53,1.74 -7.62,3.81 -3.06,2.1 -5.43,4.11 -7.05,5.64 -0.81,0.75 -1.44,1.41 -1.89,1.89 -0.42,0.48 -0.66,0.81 -0.72,0.9 l -0.1,0 0,-0.1 c 0,0 0.1,-3.57 1.77,-10.11 l 0.1,0 0,0 0,0 c -0.18,0.1 -0.93,0.39 -1.98,1.5 l -0.1,0 0,-0.1 c 0,0 3.66,-11.34 10.35,-14.7 l 0,0.1 0,0.1 c 0,0 -0.15,0 -0.42,0 -0.75,0 -2.46,0.24 -3.93,0.99 l -0.1,0 0,-0.1 c 0,0 2.1,-2.91 13.17,-8.64 l 0,0.1 0,0.1 c 0,0 0,0 -0.1,0 -0.15,-0.1 -0.54,-0.15 -1.17,-0.15 -0.63,0 -1.56,0.1 -2.82,0.42 l -0.1,0 0,-0.1 c 0,0 9.66,-6.39 15.78,-7.26 l 0,0 -0.1,0 0,-0.78 0.1,0 0,0.1 c 0,0 -0.15,0 -0.39,0.1 -1.8,0.48 -9.42,2.76 -16.89,8.67 l 0,0 0,-0.1 c 0,0 3.21,-0.69 4.26,-0.69 l 0.1,0 0,0.1 c 0,0 -0.15,0.1 -0.42,0.21 -1.86,0.87 -9.51,4.62 -12.45,8.76 l 0,0 0,-0.1 c 0,0 0.87,-0.3 1.8,-0.6 0.45,-0.15 0.93,-0.3 1.32,-0.42 0.39,-0.12 0.69,-0.18 0.81,-0.18 l 0.1,0 0,0.1 c 0,0 -0.1,0.1 -0.3,0.21 -1.29,0.96 -6.63,5.43 -8.94,15.15 l -0.1,0 0,0 c 0,0 0.3,-0.42 0.72,-0.87 0.42,-0.45 0.93,-0.96 1.29,-1.14 l 0.1,0 0,0.1 c 0,0 -0.1,0.3 -0.21,0.81 -0.42,1.56 -1.23,5.04 -1.23,7.86 0,0.36 0,0.72 0.1,1.02 l -0.1,0 0,-0.1 c 0,0 5.43,-5.31 9.27,-8.1 2.58,-1.86 8.55,-4.14 8.55,-4.14 l 0.1,0 0,0.1 -0.75,1.53 -0.1,0 0,-0.1 c 0,0 0.21,-0.1 0.51,-0.21 0.99,-0.45 3.27,-1.56 5.94,-3.42 2.43,-1.71 4.74,-5.16 5.82,-7.05 l 0.1,0 -0.1,0 0.1,0 z" style="fill:#286fb7"/>
   </g>
   <g transform="translate(594.69,68.802)">
    <path d="m -392.71,414.43 c -0.48,0.78 -3.66,5.25 -14.49,11.1 -6.51,3.48 -11.7,12.75 -13.17,16.92 0,0 4.5,-12 14.22,-17.01 6.03,-3.12 11.31,-7.41 13.41,-10.35 l 0,-0.66 z" style="fill:#286fb7"/>
   </g>
   <g transform="translate(594.69,68.802)">
    <path d="m -392.71,414.43 0.1,0 c -0.51,0.78 -3.69,5.28 -14.55,11.1 -6.45,3.48 -11.67,12.75 -13.14,16.92 l 0,0 -0.1,0 c 0,0 4.53,-12.03 14.25,-17.04 6.03,-3.15 11.31,-7.41 13.38,-10.35 l 0.1,0 -0.1,0 0,-0.66 0.1,0 0.1,0 -0.1,0 0.1,0 -0.1,0.66 0,0 c -2.1,2.97 -7.38,7.23 -13.41,10.38 -4.86,2.49 -8.4,6.75 -10.74,10.35 -1.17,1.83 -2.04,3.48 -2.61,4.68 -0.3,0.6 -0.51,1.08 -0.63,1.44 -0.15,0.33 -0.24,0.51 -0.24,0.51 l -0.1,0 0,-0.1 c 1.47,-4.2 6.66,-13.47 13.2,-16.98 10.83,-5.82 14.01,-10.29 14.46,-11.07 l 0.1,0 0,0.1 -0.1,0 z" style="fill:#286fb7"/>
   </g>
   <g transform="translate(593.83,69.596)">
    <path d="m -417.57,437.47 -0.15,2.76 0.15,-2.76 z" style="fill:#286fb7"/>
   </g>
   <g transform="translate(593.83,69.688)">
    <path d="m -417.78,440.14 0.15,-2.76 0.12,0 -0.15,2.76 -0.12,0 z" style="fill:#286fb7"/>
   </g>
   <g transform="translate(593.9,69.496)">
    <path d="m -415.8,434.58 -0.36,4.2 0.36,-4.2 z" style="fill:#286fb7"/>
   </g>
   <g transform="translate(593.88,69.637)">
    <path d="m -416.21,438.65 0.39,-4.23 0.1,0 -0.33,4.23 -0.15,0 z" style="fill:#286fb7"/>
   </g>
   <g transform="translate(593.95,69.411)">
    <path d="m -414.07,432.1 -0.42,5.22 0.42,-5.22 z" style="fill:#286fb7"/>
   </g>
   <g transform="translate(593.94,69.584)">
    <path d="m -414.55,437.13 0.42,-5.22 0.12,0 -0.41,5.22 -0.13,0 z" style="fill:#286fb7"/>
   </g>
   <g transform="translate(594.01,69.339)">
    <path d="m -412.35,430.01 -0.51,6 0.51,-6 z" style="fill:#286fb7"/>
   </g>
   <g transform="translate(594,69.539)">
    <path d="m -412.9,435.8 0.51,-6 0.12,0 -0.51,6 -0.12,0 z" style="fill:#286fb7"/>
   </g>
   <g transform="translate(594.18,69.197)">
    <path d="m -407.44,425.91 -0.61,7.11 0.61,-7.11 z" style="fill:#286fb7"/>
   </g>
   <g transform="translate(594.16,69.434)">
    <path d="m -408.07,432.78 0.6,-7.11 0.1,0 -0.57,7.14 -0.12,0 z" style="fill:#286fb7"/>
   </g>
   <g transform="translate(594.07,69.287)">
    <path d="m -410.71,428.5 -0.54,6.36 0.54,-6.36 z" style="fill:#286fb7"/>
   </g>
   <g transform="translate(594.05,69.498)">
    <path d="m -411.28,434.63 0.54,-6.36 0.12,0 -0.54,6.36 -0.12,0 z" style="fill:#286fb7"/>
   </g>
   <g transform="translate(594.13,69.228)">
    <path d="m -409.06,426.8 -0.61,7.14 0.61,-7.14 z" style="fill:#286fb7"/>
   </g>
   <g transform="translate(594.11,69.466)">
    <path d="m -409.69,433.69 0.63,-7.14 0.1,0 -0.57,7.14 -0.12,0 z" style="fill:#286fb7"/>
   </g>
   <g transform="translate(594.24,69.169)">
    <path d="m -405.86,425.08 -0.59,7.11 0.59,-7.11 z" style="fill:#286fb7"/>
   </g>
   <g transform="translate(594.22,69.405)">
    <path d="m -406.48,431.94 0.6,-7.14 0.1,0 -0.57,7.14 -0.12,0 z" style="fill:#286fb7"/>
   </g>
   <g transform="translate(594.29,69.134)">
    <path d="m -404.24,424.06 -0.65,7.56 0.65,-7.56 z" style="fill:#286fb7"/>
   </g>
   <g transform="translate(594.27,69.385)">
    <path d="m -404.91,431.34 0.65,-7.56 0.1,0 -0.62,7.56 -0.12,0 z" style="fill:#286fb7"/>
   </g>
   <g transform="translate(594.35,69.1)">
    <path d="m -402.62,423.09 -0.78,9.06 0.78,-9.06 z" style="fill:#286fb7"/>
   </g>
   <g transform="translate(594.32,69.403)">
    <path d="m -403.43,431.86 0.78,-9.03 0.12,0 -0.78,9.03 -0.12,0 z" style="fill:#286fb7"/>
   </g>
   <g transform="translate(594.41,69.06)">
    <path d="m -401,421.92 -0.81,9.42 0.81,-9.42 z" style="fill:#286fb7"/>
   </g>
   <g transform="translate(594.38,69.374)">
    <path d="m -401.83,431.03 0.8,-9.42 0.13,0 -0.81,9.45 -0.12,0 z" style="fill:#286fb7"/>
   </g>
   <g transform="translate(594.46,69.021)">
    <path d="m -399.38,420.8 -0.81,9.57 0.81,-9.57 z" style="fill:#286fb7"/>
   </g>
   <g transform="translate(594.43,69.34)">
    <path d="m -400.22,430.04 0.81,-9.6 0.12,0 -0.8,9.57 -0.13,0 z" style="fill:#286fb7"/>
   </g>
   <g transform="translate(594.52,68.984)">
    <path d="m -397.79,419.73 -0.78,9.45 0.78,-9.45 z" style="fill:#286fb7"/>
   </g>
   <g transform="translate(594.49,69.299)">
    <path d="m -398.6,428.86 0.78,-9.45 0.12,0 -0.78,9.45 -0.12,0 z" style="fill:#286fb7"/>
   </g>
   <g transform="translate(594.58,68.934)">
    <path d="m -396.09,418.27 -0.81,9.27 0.81,-9.27 z" style="fill:#286fb7"/>
   </g>
   <g transform="translate(594.55,69.243)">
    <path d="m -396.93,427.25 0.81,-9.34 0.12,0 -0.81,9.31 -0.12,0 z" style="fill:#286fb7"/>
   </g>
   <g transform="translate(594.63,68.882)">
    <path d="m -394.45,416.75 -0.78,9.03 0.78,-9.03 z" style="fill:#286fb7"/>
   </g>
   <g transform="translate(594.6,69.183)">
    <path d="m -395.26,425.5 0.78,-9.04 0.12,0 -0.78,9.04 -0.12,0 z" style="fill:#286fb7"/>
   </g>
   <g transform="translate(594.69,68.811)">
    <path d="m -392.78,414.72 -0.72,8.4 0.72,-8.4 z" style="fill:#286fb7"/>
   </g>
   <g transform="translate(594.66,69.09)">
    <path d="m -393.53,422.81 0.71,-8.4 0.13,0 -0.72,8.4 -0.12,0 z" style="fill:#286fb7"/>
   </g>
   <g transform="translate(593.69,69.828)">
    <path d="m -421.9,444.19 c 0,-0.3 0,-0.6 0,-0.9 0,-2.85 0.81,-6.33 1.2,-7.86 0.15,-0.54 0.21,-0.84 0.21,-0.84 l 0,-0.1 -0.1,0 c -0.39,0.18 -0.9,0.69 -1.32,1.14 -0.24,0.27 -0.42,0.54 -0.57,0.69 2.34,-9.54 7.62,-13.95 8.91,-14.91 0.18,-0.12 0.27,-0.18 0.27,-0.18 l 0,-0.1 0,-0.1 c -0.15,0 -0.45,0.1 -0.84,0.21 -0.39,0.1 -0.87,0.24 -1.32,0.42 -0.69,0.21 -1.32,0.42 -1.62,0.54 3,-4.11 10.5,-7.77 12.36,-8.64 0.27,-0.12 0.42,-0.18 0.42,-0.18 l 0,-0.1 -0.1,-0.1 c -0.87,0 -3.3,0.48 -4.05,0.63 7.44,-5.76 14.94,-8.04 16.71,-8.52 0.15,0 0.27,-0.1 0.33,-0.1 l 0,0.63 c -6.12,0.9 -15.72,7.26 -15.72,7.26 l 0,0.1 0.1,0 c 1.26,-0.33 2.19,-0.42 2.85,-0.42 0.57,0 0.9,0.1 1.08,0.12 -10.98,5.67 -13.02,8.55 -13.02,8.55 l 0,0.1 0.1,0 c 1.47,-0.75 3.18,-0.96 3.96,-0.99 0.1,0 0.12,0 0.15,0 -6.54,3.51 -10.11,14.58 -10.11,14.58 l 0,0.1 0.1,0 c 0.93,-0.99 1.65,-1.35 1.89,-1.47 -1.68,6.48 -1.77,10.02 -1.77,10.02 l 0.1,0 0.1,0 c 0,-0.1 0.27,-0.42 0.72,-0.9 0.36,-0.42 0.9,-0.96 1.56,-1.59 l 0,0 0.1,0 c 0,0 0,-0.1 0.1,-0.15 0.1,0 0.1,-0.1 0.15,-0.15 0.45,-0.39 0.93,-0.84 1.47,-1.32 l 0,0.15 0.1,0 0,-0.24 c 0.48,-0.42 0.99,-0.84 1.53,-1.29 l 0.1,0 0,-0.1 c 1.14,-0.93 2.43,-1.89 3.87,-2.85 3.09,-2.1 6.24,-3.33 7.62,-3.81 0.3,-0.12 0.51,-0.18 0.63,-0.21 l -0.15,1.05 0,0 0.1,0 c 0,0 0.93,-0.1 5.25,-3.21 1.77,-1.29 3.24,-3 4.38,-4.56 l 0,0 0,-0.1 c 0.69,-0.93 1.23,-1.83 1.62,-2.52 l 0,0.6 c -1.11,1.89 -3.39,5.31 -5.82,7.02 -2.67,1.86 -4.98,3 -5.94,3.42 -0.15,0.1 -0.3,0.12 -0.39,0.18 l 0.72,-1.41 0,-0.1 -0.1,0 c 0,0 -5.97,2.25 -8.52,4.11 -3.57,2.58 -8.52,7.35 -9.21,8.04" style="fill:#1f60ad"/>
   </g>
   <g transform="translate(593.68,69.833)">
    <path d="m -421.96,444.35 0,-0.1 c 0,-0.3 0,-0.66 0,-1.02 0,-3.45 1.17,-7.83 1.38,-8.61 -0.36,0.21 -0.78,0.66 -1.17,1.08 -0.21,0.21 -0.39,0.45 -0.51,0.6 -0.15,0.18 -0.21,0.27 -0.21,0.27 l -0.1,0 0,-0.1 c 2.37,-10.02 7.98,-14.49 9.09,-15.3 -0.15,0.1 -0.33,0.1 -0.57,0.15 -0.57,0.18 -1.35,0.42 -1.98,0.66 -0.63,0.21 -1.11,0.36 -1.11,0.36 l -0.1,0 0,-0.1 c 3.09,-4.32 11.16,-8.19 12.69,-8.88 -0.57,0 -1.44,0.18 -2.25,0.3 -0.93,0.18 -1.71,0.36 -1.71,0.36 l -0.1,0 0,-0.1 c 8.58,-6.78 17.31,-8.79 17.31,-8.79 l 0.1,0 0,0.1 0,0.75 0,0.1 c -0.1,0 -0.18,0 -0.27,0 -3,0.51 -6.78,2.28 -9.87,3.93 -0.12,0.1 -0.24,0.12 -0.36,0.18 -1.44,0.78 -2.7,1.53 -3.63,2.1 -0.48,0.3 -0.9,0.57 -1.17,0.72 -0.1,0.1 -0.12,0.1 -0.15,0.12 1.11,-0.27 1.95,-0.33 2.55,-0.33 0.87,0 1.23,0.15 1.23,0.15 l 0.1,0 0,0.1 c -5.55,2.88 -8.82,5.01 -10.71,6.45 -0.96,0.72 -1.56,1.26 -1.92,1.62 -0.15,0.15 -0.24,0.27 -0.33,0.36 1.95,-0.93 4.17,-0.93 4.17,-0.93 l 0.1,0 0,0.1 c -3.3,1.68 -5.88,5.31 -7.62,8.55 -0.87,1.62 -1.56,3.15 -1.98,4.26 -0.15,0.36 -0.27,0.69 -0.39,0.93 0,0.15 -0.1,0.3 -0.12,0.39 0,0.12 -0.1,0.21 -0.1,0.27 1.08,-1.11 1.86,-1.35 1.86,-1.35 l 0.1,0 0,0.1 c -0.21,0.84 -0.39,1.62 -0.57,2.37 -0.48,2.13 -0.78,3.84 -0.93,5.1 -0.15,0.87 -0.21,1.5 -0.24,1.95 0,0.18 0,0.33 0,0.45 0.12,-0.15 0.33,-0.42 0.63,-0.75 0.39,-0.45 0.96,-1.02 1.71,-1.74 0,0.1 -0.1,0.12 -0.1,0.18 l 0,0 c -0.66,0.63 -1.17,1.17 -1.56,1.59 -0.45,0.48 -0.69,0.81 -0.72,0.93 l -0.1,0 -0.1,-0.1 c 0,0 0.1,-3.54 1.77,-10.02 -0.24,0.12 -0.96,0.48 -1.89,1.47 l -0.1,0 0,-0.1 c 0,0 3.57,-11.07 10.14,-14.55 -0.1,0 -0.12,0 -0.18,0 -0.75,0.1 -2.49,0.24 -3.96,0.99 l -0.1,0 0,-0.1 c 0,0 2.04,-2.91 13.02,-8.58 -0.18,-0.1 -0.51,-0.12 -1.08,-0.12 -0.66,0 -1.59,0.1 -2.85,0.42 l -0.1,0 0,-0.1 c 0,0 9.6,-6.33 15.72,-7.23 l 0,-0.66 c -0.1,0 -0.18,0 -0.33,0.1 -1.77,0.48 -9.27,2.73 -16.71,8.52 0.75,-0.15 3.18,-0.66 4.05,-0.66 l 0.1,0.1 0,0.1 c 0,0 -0.15,0.1 -0.42,0.18 -1.86,0.87 -9.33,4.56 -12.36,8.64 0.3,-0.1 0.93,-0.33 1.62,-0.54 0.45,-0.15 0.93,-0.3 1.32,-0.42 0.39,-0.12 0.69,-0.18 0.84,-0.18 l 0,0 0,0.1 c 0,0 -0.12,0.1 -0.3,0.21 -1.29,0.93 -6.57,5.34 -8.91,14.88 0.12,-0.15 0.36,-0.42 0.57,-0.66 0.42,-0.48 0.93,-0.99 1.32,-1.17 l 0.1,0 0,0.1 c 0,0 -0.1,0.33 -0.24,0.84 -0.39,1.53 -1.2,5.01 -1.2,7.86 0,0.3 0,0.6 0,0.9 0.69,-0.66 5.64,-5.46 9.21,-8.04 2.55,-1.86 8.55,-4.11 8.55,-4.11 l 0.1,0 0,0.1 -0.72,1.38 c 0.1,0 0.21,-0.1 0.39,-0.15 0.96,-0.45 3.27,-1.56 5.94,-3.45 2.43,-1.68 4.71,-5.13 5.82,-7.02 l 0,-0.6 c -0.39,0.72 -0.93,1.59 -1.59,2.55 l 0,-0.21 c 0.69,-0.99 1.23,-1.92 1.62,-2.61 l 0.1,0 0,0.1 0,0 -0.1,0.81 0,0 0,0 -0.1,0 0.1,0 0,0 0,0 -0.1,0 0.1,0 0,0 c -1.11,1.89 -3.39,5.34 -5.85,7.05 -1.2,0.84 -2.28,1.53 -3.24,2.07 -1.92,1.08 -3.24,1.59 -3.24,1.59 l -0.1,0 0,-0.1 0.72,-1.41 c -0.18,0.1 -0.48,0.18 -0.87,0.33 -1.77,0.72 -5.64,2.34 -7.53,3.72 -1.92,1.38 -4.23,3.42 -6.09,5.1 -0.9,0.84 -1.71,1.59 -2.28,2.13 -0.57,0.57 -0.9,0.9 -0.9,0.9 l -0.1,0 z" style="fill:#10649e"/>
   </g>
   <g transform="translate(593.77,69.732)">
    <path d="m -419.35,441.4 c 0,-0.1 0.1,-0.15 0.1,-0.24 0.48,-0.42 0.96,-0.87 1.53,-1.38 l 0,0.15 c -0.54,0.48 -1.02,0.9 -1.47,1.32 -0.1,0.1 -0.1,0.1 -0.15,0.15" style="fill:#10649e"/>
   </g>
   <g transform="translate(593.83,69.679)">
    <path d="m -417.67,439.89 0,-0.15 c 0.48,-0.42 0.99,-0.81 1.53,-1.26 l 0,0.12 0,0 c -0.54,0.45 -1.05,0.9 -1.53,1.29" style="fill:#10649e"/>
   </g>
   <g transform="translate(593.89,69.634)">
    <path d="m -416.09,438.58 0,-0.15 c 1.11,-0.87 2.4,-1.83 3.81,-2.79 4.11,-2.79 8.34,-4.05 8.34,-4.05 l 0.1,0 0,0.1 -0.1,0.6 -0.1,0.45 c 0.3,-0.1 1.5,-0.51 5.16,-3.15 1.74,-1.29 3.21,-3 4.35,-4.56 l 0,0.1 0.1,0 c -1.14,1.59 -2.61,3.3 -4.35,4.56 -4.35,3.18 -5.25,3.21 -5.28,3.21 l 0,0 0,-0.1 0.15,-1.05 c -0.12,0 -0.33,0.12 -0.63,0.21 -1.41,0.51 -4.56,1.71 -7.62,3.81 -1.44,0.99 -2.76,1.95 -3.87,2.85" style="fill:#10649e"/>
   </g>
   <g transform="translate(593.85,69.569)">
    <path d="m -417.12,436.68 c 0.39,-0.69 0.84,-1.44 1.29,-2.16 l 0,0.1 c -0.48,0.72 -0.9,1.41 -1.29,2.07" style="fill:#1f60ad"/>
   </g>
   <g transform="translate(593.9,69.496)">
    <path d="m -415.79,434.56 0,0 0,0 c 0.57,-0.84 1.14,-1.71 1.77,-2.55 l 0,0.18 c -0.63,0.81 -1.2,1.59 -1.71,2.37" style="fill:#1f60ad"/>
   </g>
   <g transform="translate(593.96,69.412)">
    <path d="m -414.02,432.14 0,0 -0.1,0 c 2.14,-2.88 4.77,-5.58 7.66,-7.14 10.23,-5.49 13.64,-9.78 14.42,-10.92 l 0,0.1 0,0 0,0.45 c -0.42,0.57 -0.95,1.2 -1.61,1.86 l 0,-0.21 -0.1,0 -0.1,0 0,0.33 c -0.48,0.48 -0.99,0.99 -1.55,1.5 l 0,-0.27 -0.1,0 0,0.36 c -0.52,0.45 -1.05,0.9 -1.63,1.35 l 0,-0.18 -0.1,0 0,0.27 c -0.5,0.39 -1.02,0.78 -1.56,1.17 l 0,-0.33 -0.1,0 -0.1,0 0,0.45 c -0.51,0.36 -1.02,0.69 -1.56,1.05 l 0,-0.3 0,0 -0.1,0 0,0.39 c -0.51,0.33 -1.02,0.66 -1.56,0.99 l 0,-0.15 -0.1,0 0,0 0,0.24 c -0.51,0.33 -1.05,0.63 -1.57,0.93 l 0,-0.18 -0.1,0 -0.1,0 0,0.24 c -0.49,0.27 -0.97,0.54 -1.47,0.78 0,0 -0.1,0 -0.1,0 l -0.1,0 0,0.1 c -0.54,0.3 -1.06,0.6 -1.56,0.9 l 0,-0.1 0,0 -0.1,0 0,0.18 c -0.54,0.33 -1.07,0.72 -1.59,1.11 l 0,-0.36 -0.1,0 0,0 -0.1,0.45 c -0.54,0.42 -1.05,0.87 -1.56,1.32 l 0,0 -0.1,0 0,0.1 c -0.56,0.51 -1.11,1.05 -1.61,1.62 l 0,-0.15 0,0 0,0 0,0.3 c -0.61,0.63 -1.14,1.26 -1.65,1.92" style="fill:#1f60ad"/>
   </g>
   <g transform="translate(593.77,69.738)">
    <path d="m -419.47,441.58 0,0 0,0 c 1.47,-4.2 6.66,-13.47 13.17,-16.98 10.83,-5.85 14.04,-10.29 14.49,-11.07 l 0.1,0 0.1,0.1 -0.1,0 0.1,0 -0.1,0 0.1,0 -0.1,0.66 0,0 c 0,0 0,0.1 -0.1,0.1 l 0.1,-0.48 -0.1,0 0,0 0,-0.1 c -0.78,1.14 -4.2,5.43 -14.43,10.92 -2.88,1.56 -5.52,4.26 -7.68,7.14 -0.63,0.84 -1.23,1.68 -1.77,2.55 l 0,0 0,0 c -0.45,0.72 -0.9,1.47 -1.29,2.16 0.39,-0.66 0.81,-1.35 1.29,-2.07 l 0,0.24 c -0.1,0.1 -0.1,0.15 -0.15,0.24 -0.6,0.9 -1.08,1.77 -1.53,2.55 l 0,-0.12 -0.1,0 0,0.36 c -0.39,0.69 -0.72,1.35 -0.96,1.89 -0.3,0.6 -0.51,1.08 -0.66,1.41 0,0.1 0,0.1 -0.1,0.15 0,0.1 -0.1,0.18 -0.1,0.24 l -0.1,0.15 -0.1,0 z" style="fill:#10649e"/>
   </g>
   <g transform="translate(593.9,69.501)">
    <path d="m -415.77,434.71 0,-0.15 0,0 c 0.51,-0.78 1.08,-1.56 1.71,-2.37 l 0,0.21 c -0.6,0.78 -1.14,1.56 -1.65,2.31" style="fill:#10649e"/>
   </g>
   <g transform="translate(593.96,69.419)">
    <path d="m -414.04,432.33 0,-0.18 c 0.51,-0.67 1.05,-1.32 1.62,-1.95 l 0,0.18 c -0.6,0.62 -1.14,1.29 -1.65,1.95" style="fill:#10649e"/>
   </g>
   <g transform="translate(594.01,69.349)">
    <path d="m -412.33,430.32 0,-0.18 c 0.54,-0.54 1.05,-1.08 1.62,-1.59 l 0,0.15 c -0.57,0.54 -1.11,1.08 -1.62,1.62" style="fill:#10649e"/>
   </g>
   <g transform="translate(594.07,69.292)">
    <path d="m -410.66,428.65 0,-0.15 0,0 c 0.51,-0.45 1.02,-0.9 1.56,-1.32 l 0,0.15 c -0.54,0.42 -1.05,0.87 -1.56,1.32" style="fill:#10649e"/>
   </g>
   <g transform="translate(594.13,69.245)">
    <path d="m -409.04,427.29 0,-0.16 c 0.51,-0.38 1.05,-0.74 1.59,-1.1 l 0,0.15 c -0.21,0.12 -0.42,0.26 -0.63,0.41 -0.3,0.22 -0.63,0.46 -0.93,0.7" style="fill:#10649e"/>
   </g>
   <g transform="translate(594.19,69.205)">
    <path d="m -407.41,426.13 0,-0.12 c 0.51,-0.33 1.02,-0.63 1.56,-0.9 l 0,0.12 c -0.51,0.27 -1.02,0.57 -1.53,0.9" style="fill:#10649e"/>
   </g>
   <g transform="translate(594.24,69.173)">
    <path d="m -405.81,425.19 0,-0.12 0,0 c 0,0 0.1,0 0.1,-0.1 0.51,-0.24 0.96,-0.51 1.47,-0.78 l 0,0.15 c -0.45,0.24 -0.93,0.51 -1.38,0.75 -0.1,0 -0.1,0 -0.15,0.1" style="fill:#10649e"/>
   </g>
   <g transform="translate(594.3,69.143)">
    <path d="m -404.22,424.34 0,-0.12 c 0.54,-0.3 1.05,-0.63 1.59,-0.93 l 0,0.15 c -0.51,0.3 -1.02,0.6 -1.56,0.9" style="fill:#10649e"/>
   </g>
   <g transform="translate(594.35,69.11)">
    <path d="m -402.59,423.39 0,-0.12 c 0.54,-0.33 1.05,-0.66 1.56,-0.99 l 0,0.12 c -0.51,0.33 -1.02,0.66 -1.56,0.99" style="fill:#10649e"/>
   </g>
   <g transform="translate(594.41,69.075)">
    <path d="m -400.98,422.36 0,-0.15 c 0.54,-0.33 1.05,-0.69 1.56,-1.04 l 0,0.14 c -0.51,0.33 -1.02,0.69 -1.56,1.05" style="fill:#10649e"/>
   </g>
   <g transform="translate(594.46,69.037)">
    <path d="m -399.37,421.26 0,-0.15 c 0.54,-0.4 1.08,-0.79 1.56,-1.18 l 0,0.16 c -0.51,0.39 -1.02,0.78 -1.56,1.17" style="fill:#10649e"/>
   </g>
   <g transform="translate(594.52,68.995)">
    <path d="m -397.75,420.04 0,-0.15 c 0.6,-0.45 1.11,-0.9 1.62,-1.35 l 0,0.15 c -0.51,0.45 -1.05,0.9 -1.62,1.35" style="fill:#10649e"/>
   </g>
   <g transform="translate(594.58,68.947)">
    <path d="m -396.07,418.66 0,-0.15 c 0.6,-0.52 1.11,-1.02 1.59,-1.5 l 0,0.18 c -0.48,0.48 -1.02,0.96 -1.59,1.47" style="fill:#10649e"/>
   </g>
   <g transform="translate(594.63,68.894)">
    <path d="m -394.43,417.12 0,-0.19 c 0.66,-0.66 1.2,-1.29 1.62,-1.86 l 0,0.21 c -0.45,0.58 -0.99,1.17 -1.62,1.84" style="fill:#10649e"/>
   </g>
   <g transform="translate(593.83,69.688)">
    <path d="m -417.78,440.14 0,-0.15 0,-0.18 0.12,-2.04 0,-0.39 0.12,0 0,0.15 -0.15,2.01 0,0.21 0,0.15 0,0.24 -0.12,0 z" style="fill:#10649e"/>
   </g>
   <g transform="translate(593.88,69.637)">
    <path d="m -416.19,438.65 0,0 0.36,-3.9 0,-0.21 0,-0.1 0,-0.1 0,0 0.1,0 0,0.15 -0.27,3.63 0,0.21 0,0.15 0,0.1 -0.1,0 z" style="fill:#10649e"/>
   </g>
   <g transform="translate(593.94,69.584)">
    <path d="m -414.49,437.13 -0.1,0 0.42,-4.79 0,-0.21 0,-0.22 0.1,0 0,0 0,0.21 -0.39,4.8 0,0.17 0,0 z" style="fill:#10649e"/>
   </g>
   <g transform="translate(594,69.539)">
    <path d="m -412.85,435.8 -0.1,0 0.45,-5.52 0,-0.21 0,-0.27 0.1,0 0.1,0 0,0.15 0,0.18 -0.51,5.64 0,0 0,0 z" style="fill:#10649e"/>
   </g>
   <g transform="translate(594.16,69.434)">
    <path d="m -408.02,432.78 -0.1,0 0.57,-6.81 0,-0.12 0,-0.18 0.1,0 0.1,0 0,0.1 0,0.15 -0.54,6.54 0,0.36 -0.1,0 z" style="fill:#10649e"/>
   </g>
   <g transform="translate(594.05,69.498)">
    <path d="m -411.23,434.63 0.1,0 -0.1,0 z m 0.6,-6.18 -0.54,6.18 0.54,-6.18 z" style="fill:#73a5c1"/>
   </g>
   <g transform="translate(594.05,69.498)">
    <path d="m -411.23,434.63 -0.1,0 0.54,-6.06 0,-0.18 0,-0.12 0.1,0 0.1,0 0,0.15 -0.54,6.18 -0.1,0 z" style="fill:#10649e"/>
   </g>
   <g transform="translate(594.11,69.466)">
    <path d="m -409.69,433.69 0.57,-6.54 0,-0.15 0.1,-0.45 0,0 0,0 0,0.36 0,0.15 -0.54,6.63 -0.12,0 z" style="fill:#10649e"/>
   </g>
   <g transform="translate(594.22,69.405)">
    <path d="m -406.43,431.94 0.1,0 -0.1,0 z m 0.66,-6.96 -0.6,6.99 0.6,-6.99 z" style="fill:#80b1c7"/>
    <path d="m -406.43,431.94 -0.1,0 0.57,-6.9 0,-0.15 0,-0.1 0.12,0 0,0.15 -0.6,6.99 -0.1,0 z" style="fill:#10649e"/>
   </g>
   <g transform="translate(594.27,69.385)">
    <path d="m -404.86,431.37 0.1,0 -0.1,0 z m 0.66,-7.26 -0.6,7.26 0.6,-7.26 z" style="fill:#80b1c7"/>
   </g>
   <g transform="translate(594.27,69.385)">
    <path d="m -404.86,431.37 -0.1,0 0.63,-7.17 0,-0.15 0,-0.24 0.1,0 0,0 0,0.15 0,0.15 -0.63,7.26 0,0 z" style="fill:#10649e"/>
   </g>
   <g transform="translate(594.32,69.403)">
    <path d="m -403.43,431.86 0.75,-8.7 0,-0.12 0,-0.21 0.1,0 0.1,0 0,0.12 0,0.15 -0.75,8.76 -0.12,0 z" style="fill:#10649e"/>
   </g>
   <g transform="translate(594.38,69.374)">
    <path d="m -401.83,431.03 0.77,-8.88 0,-0.15 0,-0.39 0.1,0 0,0 0,0.33 0,0.12 -0.78,9 -0.12,0 z" style="fill:#10649e"/>
   </g>
   <g transform="translate(594.43,69.34)">
    <path d="m -400.22,430.04 0.76,-9 0,-0.15 0,-0.45 0.1,0 0.1,0 0,0.33 0,0.18 -0.74,9.06 -0.13,0 z" style="fill:#10649e"/>
   </g>
   <g transform="translate(594.49,69.299)">
    <path d="m -398.6,428.86 0.75,-9.03 0,-0.15 0,-0.27 0.12,0 0,0.18 0,0.15 -0.75,9.12 -0.12,0 z" style="fill:#10649e"/>
   </g>
   <g transform="translate(594.55,69.242)">
    <path d="m -396.88,427.22 0.1,0 -0.1,0 z m 0.81,-8.85 -0.75,8.88 0.75,-8.88 z" style="fill:#80b1c7"/>
   </g>
   <g transform="translate(594.55,69.243)">
    <path d="m -396.88,427.25 -0.1,0 0.75,-8.77 0,-0.18 0,-0.39 0.12,0 0,0.27 0,0.15 -0.81,8.89 0,0 z" style="fill:#10649e"/>
   </g>
   <g transform="translate(594.61,69.183)">
    <path d="m -395.18,425.5 -0.1,0 0.75,-8.56 0,-0.17 0,-0.31 0.1,0 0.1,0 0,0.19 0,0.18 -0.69,8.37 0,0.1 0,0.2 0,0 0,0 z" style="fill:#10649e"/>
   </g>
   <g transform="translate(594.66,69.091)">
    <path d="m -393.48,422.83 0,0 0.66,-7.71 0,-0.24 0,-0.45 0.1,0 0.1,0 0,0.45 -0.66,7.65 0,0.3 -0.1,0 z" style="fill:#10649e"/>
   </g>
  </g>
 </g>
</svg>
