<?xml version="1.0" encoding="utf-8"?>
<!-- Generator: Adobe Illustrator 14.0.0, SVG Export Plug-In . SVG Version: 6.00 Build 43363)  -->
<!DOCTYPE svg PUBLIC "-//W3C//DTD SVG 1.1//EN" "http://www.w3.org/Graphics/SVG/1.1/DTD/svg11.dtd">
<svg version="1.1" id="Calque_1" xmlns="http://www.w3.org/2000/svg" xmlns:xlink="http://www.w3.org/1999/xlink" x="0px" y="0px"
	  viewBox="0 0 250 42" enable-background="new 0 0 200 36" xml:space="preserve">
<g>
	<rect fill="none" width="200" height="36"/>
	<g>
		<path fill="#1B171B" d="M31.791,18.77l-1.527-1.723l0.043,1.15l0.809,0.971L31.791,18.77 M15.892,34.348
			c-0.676-1.371-2.281-2.207-4.168-2.207c-0.18,0.043-0.355,0.043-0.539,0.043c1.84,0.309,3.41,1.324,3.992,2.605L15.892,34.348z
			 M22.166,30.469l-0.535-1.062l-1.391,0.883c-1.031-1.242-2.688-2.695-6.629-2.695c-4.168-0.043-9.281,3.223-11.609,6.047
			L2.4,34.172c3.184-2.078,6.457-3,9.324-3c2.328,0,4.258,1.102,5.066,2.734L22.166,30.469z M9.978,23.844
			c0.086-1.809-0.312-4.016-0.715-6.135c-0.406-2.162-0.766-4.367-0.723-6.307c0.047-1.193,0.27-2.342,0.762-3.396
			c-0.848,1.275-1.383,2.73-1.43,4.279C7.736,16.033,9.572,20.93,9.396,24.73c-0.047,0.574-0.094,1.145-0.133,1.543l0.086-0.094
			C9.708,25.699,9.931,24.949,9.978,23.844z M29.064,34.438l-4.488-2.914c-0.539-0.352-1.164-1.016-1.164-2.25V18.727l-0.449,0.266
			l-0.176,0.086v10.5c0,0.887,0.488,1.812,1.16,2.25l4.531,2.961L29.064,34.438z M26.47,6.281c-0.809-1.236-2.961-3.531-7.219-3.531
			c-5.105-0.041-9.586,3.885-9.766,8.652c-0.137,3.793,1.699,8.691,1.52,12.488c-0.086,1.277-0.359,2.203-0.895,2.914l0.535,0.613
			l3.141-2.25c1.523-1.102,2.375-2.473,2.332-4.855c-0.047-2.955-1.438-7.498-1.438-10.982c0-3.006,1.164-5.254,3.812-5.254
			c1.793,0,3.227,1.809,3.449,2.822c0.09,0.484,0,0.709-0.445,1.018L20.24,8.758v1.361L26.47,6.281z M38.017,18.021l-6.004-6.531
			l-9.371,5.381v1.236l1.926-1.061v12.227c0,0.703,0.273,1.145,0.723,1.457l4.973,3.176l7.035-4.016l-0.582-1.234l-3.676,1.938
			l-3.312-2.25c-0.406-0.262-0.449-0.527-0.449-1.102V23.27L38.017,18.021z M21.181,7.078c-0.137-0.617-1.211-2.033-2.418-2.033
			c-0.273,0-0.449,0.047-0.633,0.092c1.168,0.439,2.062,1.584,2.332,2.383l0.672-0.398c0-0.043,0-0.043,0-0.043H21.181z
			 M33.314,18.992l-4.035,2.473v-6.447l0.359-0.221L33.314,18.992z"/>
		<path fill="#1B171B" d="M52.064,34.703c-0.352-1.148-1.43-2.125-3.312-2.387c0.273-0.043,0.535-0.043,0.809-0.043
			c2.328,0.043,3,1.453,3.133,1.898l0.047,0.129L52.064,34.703 M53.681,33.859c-0.445-1.234-1.75-2.516-4.078-2.602
			c-2.199-0.043-5.34,0.797-7.938,2.742l-0.488-0.625c1.883-2.031,6.273-5.293,10.887-5.336c2.426,0,4.125,0.793,5.336,2.07
			l2.02-1.102l0.582,1.148L53.681,33.859z M51.263,25.656c0.223-0.707,0.312-1.504,0.312-2.34V10.473
			c0-1.541-0.09-1.715-0.625-2.201c0,0,0.039,0,0.086,0c0.762-0.137,1.164,0,1.164,1.32v12.885
			C52.201,23.977,51.931,24.949,51.263,25.656z M44.263,4.432c-0.355,1.014-0.309,1.984,0.141,2.777
			c0.406,0.707,1.121,1.193,1.973,1.412C43.728,8.844,42.568,6.768,44.263,4.432z M62.509,34.57c0,0-0.133,0.086-0.223,0.133h-0.359
			V10.08c0-1.193-0.09-1.193-0.809-1.723l-1.023-0.793l0.668-0.355c0.535,0.439,1.348,1.062,1.348,1.102
			c0.312,0.311,0.398,0.488,0.398,1.195v25.104V34.57z M81.333,6.811C79.583,7.828,79,9.195,79,11.312v16.898
			c0,1.062,0.137,1.547,0.719,1.855l0.582,0.309l1.613-0.93l0.539,1.062l-5.605,3.312l-1.922-1.281
			c-0.855-0.578-1.219-1.281-1.219-2.648V14.797c0-2.82,0.902-4.324,2.156-5.25l0.715-0.527l-5.285-3.045l-2.375,1.408
			c0,20.523,0,21.977,0,21.977c0,1.855-0.27,2.117-1.93,2.957c0,0-1.296,0.621-3.085,1.543h-0.359V9.506
			c0-1.195-0.141-1.459-0.809-1.986l-1.883-1.5l-2.289,1.277v12.625c0,2.203-0.355,3.789-2.148,4.895l-4.484,2.777l-0.445-0.746
			c1.387-1.059,1.703-2.559,1.703-4.324V9.635c0-1.898-0.27-2.645-2.289-2.291c-0.758,0.129-1.922,0.305-2.637,0.393
			c-2.965,0.398-4.215-1.674-2.203-4.279c0,0,0.492-0.66,1.75-2.248l0.988,0.662L48.08,2.885c-0.941,1.326-0.184,2.033,1.344,1.498
			c0.719-0.262,2.105-0.789,3.09-1.189c4.258-1.631,5.828,1.061,6.051,2.65l5.293-3.135l4.565,3.439l5.648-3.439l4.348,2.428
			c1.477,0.838,2.195,0.484,3.227-0.045l0.852-0.441l0.672,1.104L81.333,6.811z M75.235,34.703l-1.566-1.062
			c-1.031-0.703-1.57-1.898-1.57-3.223V15.682c0-2.029,0.453-3.441,1.168-4.412c-0.406,0.971-0.582,2.162-0.582,3.527l0.043,15.094
			c0,1.633,0.492,2.688,1.656,3.484l1.434,0.973L75.235,34.703z M74.34,9.547l-3.586-2.074l0.539-0.352l3.449,1.986
			C74.61,9.242,74.473,9.371,74.34,9.547z"/>
		<path fill="#1B171B" d="M94.426,28.832V18.77c0-0.527-0.176-0.705-0.586-0.926l-2.102-1.234v0.662l1.211,0.66
			c0.891,0.486,0.891,0.572,0.891,1.502l-0.043,9.043L94.426,28.832 M91.649,34.484l-5.152-3.051
			c-1.035-0.617-1.441-1.367-1.441-2.691V18.77l-0.445,0.223l-0.184,0.086v10.148c0,1.191,0.543,2.074,1.488,2.602l5.148,2.961
			L91.649,34.484z M102.086,28.477l-0.398-0.969l-1.57,0.793V16.344c0-0.615-0.219-1.102-0.848-1.457l-5.785-3.396l-9.371,5.381
			v1.281l1.93-1.105v11.695c0,1.059,0.27,1.457,0.941,1.852l5.691,3.312L102.086,28.477z M105.844,34.609V16.652l-0.582-0.662
			l-0.719,0.402l0.672,0.746v17.564h0.363c0.086-0.047,0.227-0.094,0.227-0.094H105.844z M118.395,34.391l-1.344-0.789
			c-1.211-0.711-1.84-1.812-1.84-3.492V18.152c0-0.707-0.039-0.66-0.312-0.881c0,0-0.938-0.754-1.566-1.238l-0.676,0.359
			l1.305,0.965c0.715,0.527,0.629,0.574,0.629,1.635v11.602c0,1.59,0.668,2.695,1.609,3.227l1.613,0.883L118.395,34.391z
			 M124.312,30.992l-0.449-1.016l-1.656,0.93l-0.582-0.352c-0.629-0.355-0.762-0.797-0.762-1.855V16.033
			c0-1.016-0.227-1.455-0.855-1.895l-3.453-2.562l-5.332,3.002l-2.824-3.002l-5.645,3.4l0.766,0.879l1.926-1.143l1.383,1.543V33.82
			h0.359c2.246-0.973,2.961-1.281,2.961-1.281c1.074-0.445,1.395-0.797,1.395-2.031c0,0.047,0-1.191,0-14.652l1.836-1.059
			l2.152,1.682c0.582,0.48,0.668,0.879,0.668,1.629l0.047,12.002c0,1.324,0.398,2.074,1.297,2.605l1.883,1.105L124.312,30.992z
			 M95.411,30.332l-0.27,0.043l-3.672-2.117c-0.629-0.352-0.762-0.75-0.762-1.543l0.043-11.609l0.266-0.088l3.543,2.029
			c0.719,0.398,0.852,0.754,0.852,1.504V30.332z"/>
		<path fill="#1B171B" d="M135.281,28.742V14.754l-0.625,0.4v13.189L135.281,28.742 M154.062,18.77l-1.527-1.723l0.047,1.15
			l0.809,0.971L154.062,18.77z M136.266,30.332l-0.27,0.043l-3.18-2.031c-0.625-0.395-0.848-0.703-0.848-1.496V15.594l3.984-2.387
			l0.312,0.178V30.332z M132.508,34.438l-4.848-3.004c-1.164-0.703-1.383-1.367-1.383-2.645c0-7.109,0-9.488,0-9.488l-0.367,0.176
			l-0.262,0.133v9.398c0,1.5,0.488,2.164,1.25,2.648l5.02,3.133L132.508,34.438z M142.906,28.523l-0.406-1.016l-1.617,0.836V9.635
			c0-2.736-1.25-4.498-3.312-5.736l-2.016-1.236l-6.32,3.619l1.254,0.578l2.066-1.105l1.34,0.75c1.43,0.793,2.371,2.383,2.371,4.014
			v0.705L125.422,17.4v1.193l1.836-0.971v11.209c0,0.969,0.27,1.367,0.898,1.762l5.379,3.312L142.906,28.523z M151.602,34.438
			l-4.527-2.914c-0.535-0.352-1.164-1.016-1.164-2.25V18.727l-0.449,0.266l-0.18,0.086v10.367c0,1.148,0.449,1.945,1.211,2.43
			l4.48,2.914L151.602,34.438z M135.281,10.652v-0.135c0-1.236-0.762-2.512-1.926-3.174c-0.449-0.266-0.848-0.484-0.848-0.484
			l-0.539,0.35l0.309,0.174c1.527,0.84,2.379,1.898,2.379,3.621L135.281,10.652z M160.336,18.021l-6.051-6.531l-9.367,5.381v1.236
			l1.926-1.061v12.227c0,0.703,0.273,1.145,0.719,1.457l4.973,3.176l7.035-4.016l-0.531-1.234l-3.68,1.938l-3.316-2.25
			c-0.453-0.305-0.496-0.527-0.496-1.102V23.27L160.336,18.021z M155.582,18.992l-4.035,2.473v-6.447l0.406-0.221L155.582,18.992z"
			/>
		<path fill="#004887" d="M166.496,34.195c-1.816,0-3.402-1.523-3.402-3.305c0-1.828,1.504-3.312,3.355-3.312
			c1.902,0,3.367,1.445,3.367,3.273C169.816,32.672,168.316,34.195,166.496,34.195"/>
		<path fill="#004887" d="M191.27,16.016h-0.121v-3.059h-11.125v-1.162c0-0.521-0.297-3.629,2.273-4.16
			c1.172-0.24,2.168,0.393,2.785,0.895l4.484-2.834c-1.805-1.994-4.469-2.586-6.766-2.451c-1.629,0.098-8.137,1.049-8.137,8.111
			l0.027,1.615l-2.961-0.014l-1.547,1.484h4.48v19.547h5.359V14.441h5.754l0.016,19.547h5.355v-11.23
			c0.098-3.484,1.191-5.674,6.676-5.855L198,12.193C194.234,12.43,192.281,14.395,191.27,16.016"/>
	</g>
</g>
</svg>
