<?xml version="1.0" encoding="iso-8859-1"?>
<!-- Generator: Adobe Illustrator 19.0.0, SVG Export Plug-In . SVG Version: 6.00 Build 0)  -->
<svg version="1.1" id="Layer_1" xmlns="http://www.w3.org/2000/svg" xmlns:xlink="http://www.w3.org/1999/xlink" x="0px" y="0px"
	 viewBox="0 0 513.164 513.164" style="enable-background:new 0 0 513.164 513.164;" xml:space="preserve">
<g>
	<g>
		<circle cx="373.527" cy="261.818" r="23.273"/>
	</g>
</g>
<g>
	<g>
		<path d="M326.982,192H187.345c-6.982,0-11.636,4.655-11.636,11.636s4.655,11.636,11.636,11.636h139.636
			c6.982,0,11.636-4.655,11.636-11.636S333.964,192,326.982,192z"/>
	</g>
</g>
<g>
	<g>
		<path d="M478.255,250.182c-6.982,0-12.8-3.491-16.291-10.473c-9.309-18.618-20.945-36.073-37.236-52.364l17.455-61.673
			c1.164-3.491,0-6.982-2.327-10.473c-2.327-2.327-5.818-4.655-9.309-4.655c-31.418-1.164-57.018,9.309-76.8,31.418
			c-9.309-3.491-19.782-6.982-30.255-10.473c8.145-12.8,12.8-27.927,12.8-44.218c0-45.382-36.073-81.455-81.455-81.455
			c-45.382,0-81.455,36.073-81.455,81.455c0,45.382,36.073,81.455,81.455,81.455c19.782,0,37.236-6.982,51.2-18.618
			c15.127,3.491,33.745,10.473,45.382,16.291c4.655,2.327,10.473,1.164,13.964-3.491c12.8-16.291,27.927-25.6,47.709-27.927
			l-15.127,53.527c-1.164,4.655,0,9.309,3.491,11.636c16.291,15.127,29.091,31.418,37.236,50.036
			c6.982,15.127,20.945,23.273,37.236,23.273c6.982,0,11.636,4.655,11.636,11.636v46.545c0,6.982-4.655,11.636-11.636,11.636
			h-19.782c-3.491,0-5.818,1.164-8.145,3.491c-5.818,6.982-10.473,11.636-16.291,16.291c-5.818,5.818-12.8,11.636-22.109,23.273
			c-17.455,19.782-26.764,45.382-26.764,73.309v11.636c0,6.982-4.655,11.636-11.636,11.636h-23.273
			c-6.982,0-11.636-4.655-11.636-11.636v-22.109c0-6.982-4.655-11.636-11.636-11.636c-6.982,0-11.636,4.655-11.636,11.636v22.109
			c0,19.782,15.127,34.909,34.909,34.909H371.2c19.782,0,34.909-15.127,34.909-34.909v-11.636c0-22.109,6.982-43.055,20.945-58.182
			c9.309-10.473,15.127-16.291,20.945-22.109c4.655-3.491,8.145-8.145,12.8-12.8h17.455c19.782,0,34.909-15.127,34.909-34.909
			v-46.545C513.164,265.309,498.036,250.182,478.255,250.182z M257.164,145.455c-32.582,0-58.182-25.6-58.182-58.182
			c0-32.582,25.6-58.182,58.182-58.182c32.582,0,58.182,25.6,58.182,58.182C315.345,119.855,289.745,145.455,257.164,145.455z"/>
	</g>
</g>
<g>
	<g>
		<path d="M283.927,446.836c-34.909,3.491-72.145,0-104.727-11.636c-3.491-1.164-6.982-1.164-10.473,1.164
			c-2.327,2.327-4.655,5.818-4.655,9.309v25.6c0,6.982-4.655,11.636-11.636,11.636h-23.273c-6.982,0-11.636-4.655-11.636-11.636
			v-26.764c0-24.436-8.145-48.873-24.436-68.655c-3.491-3.491-6.982-8.145-10.473-11.636c-9.309-10.473-15.127-18.618-19.782-27.927
			c-2.327-8.145-3.491-16.291-3.491-27.927c0-61.673,41.891-117.527,109.382-145.455c5.818-2.327,9.309-9.309,5.818-15.127
			c-2.327-5.818-9.309-9.309-15.127-5.818C88.436,171.055,43.055,229.236,36.073,294.4c-6.982-3.491-12.8-11.636-12.8-20.945
			c0-6.982-4.655-11.636-11.636-11.636S0,266.473,0,273.455c0,22.109,15.127,39.564,34.909,45.382
			c1.164,9.309,2.327,18.618,5.818,25.6c4.655,12.8,12.8,22.109,23.273,34.909c3.491,3.491,6.982,8.145,10.473,12.8
			c11.636,15.127,18.618,34.909,18.618,53.527v26.764c0,19.782,15.127,34.909,34.909,34.909h23.273
			c19.782,0,34.909-15.127,34.909-34.909v-9.309c31.418,9.309,66.327,11.636,100.073,8.145c5.818-1.164,10.473-6.982,10.473-12.8
			C296.727,450.327,290.909,445.673,283.927,446.836z"/>
	</g>
</g>
<g>
	<g>
		<path d="M268.8,98.909V64c0-6.982-4.655-11.636-11.636-11.636h-11.636c-6.982,0-11.636,4.655-11.636,11.636
			s4.655,11.636,11.636,11.636v23.273c-6.982,0-11.636,4.655-11.636,11.636s4.655,11.636,11.636,11.636H268.8
			c6.982,0,11.636-4.655,11.636-11.636S275.782,98.909,268.8,98.909z"/>
	</g>
</g>
<g>
</g>
<g>
</g>
<g>
</g>
<g>
</g>
<g>
</g>
<g>
</g>
<g>
</g>
<g>
</g>
<g>
</g>
<g>
</g>
<g>
</g>
<g>
</g>
<g>
</g>
<g>
</g>
<g>
</g>
</svg>
